<mxfile host="Electron" modified="2023-05-26T18:25:41.355Z" agent="Mozilla/5.0 (Windows NT 10.0; Win64; x64) AppleWebKit/537.36 (KHTML, like Gecko) draw.io/21.2.8 Chrome/112.0.5615.165 Electron/24.2.0 Safari/537.36" etag="P7J21kgMOlupEveGQNOS" version="21.2.8" type="device">
  <diagram name="Page-1" id="H4xAK7n-GKnp9-7Lvd7u">
    <mxGraphModel dx="830" dy="482" grid="1" gridSize="10" guides="1" tooltips="1" connect="1" arrows="1" fold="1" page="1" pageScale="1" pageWidth="850" pageHeight="1100" math="0" shadow="0">
      <root>
        <mxCell id="0" />
        <mxCell id="1" parent="0" />
        <mxCell id="1_a89S_5MudB19KmzZ1R-12" style="edgeStyle=orthogonalEdgeStyle;rounded=0;orthogonalLoop=1;jettySize=auto;html=1;exitX=1;exitY=0.5;exitDx=0;exitDy=0;" edge="1" parent="1" source="1_a89S_5MudB19KmzZ1R-4" target="1_a89S_5MudB19KmzZ1R-9">
          <mxGeometry relative="1" as="geometry" />
        </mxCell>
        <mxCell id="1_a89S_5MudB19KmzZ1R-4" value="User / App" style="rounded=0;whiteSpace=wrap;html=1;" vertex="1" parent="1">
          <mxGeometry x="50" y="290" width="110" height="60" as="geometry" />
        </mxCell>
        <mxCell id="1_a89S_5MudB19KmzZ1R-20" style="edgeStyle=orthogonalEdgeStyle;rounded=0;orthogonalLoop=1;jettySize=auto;html=1;" edge="1" parent="1" source="1_a89S_5MudB19KmzZ1R-9" target="1_a89S_5MudB19KmzZ1R-19">
          <mxGeometry relative="1" as="geometry" />
        </mxCell>
        <mxCell id="1_a89S_5MudB19KmzZ1R-24" style="edgeStyle=orthogonalEdgeStyle;rounded=0;orthogonalLoop=1;jettySize=auto;html=1;entryX=0;entryY=0.5;entryDx=0;entryDy=0;" edge="1" parent="1" source="1_a89S_5MudB19KmzZ1R-9" target="1_a89S_5MudB19KmzZ1R-23">
          <mxGeometry relative="1" as="geometry" />
        </mxCell>
        <mxCell id="1_a89S_5MudB19KmzZ1R-9" value="Config Manager" style="swimlane;startSize=0;" vertex="1" parent="1">
          <mxGeometry x="200" y="210" width="400" height="220" as="geometry">
            <mxRectangle x="225" y="230" width="130" height="30" as="alternateBounds" />
          </mxGeometry>
        </mxCell>
        <mxCell id="1_a89S_5MudB19KmzZ1R-2" value="Somewhat parsing config type" style="rounded=0;whiteSpace=wrap;html=1;" vertex="1" parent="1_a89S_5MudB19KmzZ1R-9">
          <mxGeometry x="15" y="110" width="90" height="60" as="geometry" />
        </mxCell>
        <mxCell id="1_a89S_5MudB19KmzZ1R-16" value="" style="edgeStyle=orthogonalEdgeStyle;rounded=0;orthogonalLoop=1;jettySize=auto;html=1;endArrow=none;endFill=0;" edge="1" parent="1_a89S_5MudB19KmzZ1R-9" source="1_a89S_5MudB19KmzZ1R-15" target="1_a89S_5MudB19KmzZ1R-2">
          <mxGeometry relative="1" as="geometry" />
        </mxCell>
        <mxCell id="1_a89S_5MudB19KmzZ1R-15" value="either code gen&lt;br&gt;reflections&lt;br&gt;json parsing" style="text;html=1;strokeColor=none;fillColor=none;align=center;verticalAlign=middle;whiteSpace=wrap;rounded=0;" vertex="1" parent="1_a89S_5MudB19KmzZ1R-9">
          <mxGeometry x="11" y="50" width="98" height="40" as="geometry" />
        </mxCell>
        <mxCell id="1_a89S_5MudB19KmzZ1R-19" value="MongoDB" style="shape=cylinder3;whiteSpace=wrap;html=1;boundedLbl=1;backgroundOutline=1;size=15;" vertex="1" parent="1">
          <mxGeometry x="680" y="310" width="70" height="90" as="geometry" />
        </mxCell>
        <mxCell id="1_a89S_5MudB19KmzZ1R-22" value="r/w" style="text;html=1;align=center;verticalAlign=middle;resizable=0;points=[];autosize=1;strokeColor=none;fillColor=none;" vertex="1" parent="1">
          <mxGeometry x="600" y="290" width="40" height="30" as="geometry" />
        </mxCell>
        <mxCell id="1_a89S_5MudB19KmzZ1R-23" value="File System" style="rounded=1;whiteSpace=wrap;html=1;" vertex="1" parent="1">
          <mxGeometry x="680" y="250" width="74" height="50" as="geometry" />
        </mxCell>
      </root>
    </mxGraphModel>
  </diagram>
</mxfile>
